<?xml version="1.0" encoding="UTF-8"?>
<svg width="240px" height="240px" viewBox="0 0 240 240" version="1.1" xmlns="http://www.w3.org/2000/svg" xmlns:xlink="http://www.w3.org/1999/xlink">
    <!-- Generator: Sketch 51.1 (57501) - http://www.bohemiancoding.com/sketch -->
    <title>Artboard</title>
    <desc>Created with Sketch.</desc>
    <defs></defs>
    <g id="Artboard" stroke="none" stroke-width="1" fill="none" fill-rule="evenodd">
        <path d="M170.4433,89.9217746 L121.701449,174.690211 C120.853765,176.008831 120.00608,175.820457 119.158396,174.125088 L98.955252,139.228749 C98.2959419,138.004316 98.3901291,137.109538 99.2378134,136.544415 C104.606481,133.247864 108.138499,131.151258 109.833868,130.254597 C111.529237,129.357935 112.75367,129.523704 113.507167,130.751905 L119.440957,140.358994 L144.871488,96.5619688 C145.624986,95.1491615 146.661044,94.7724129 147.979664,95.431723 C149.298285,96.0910331 149.439565,97.2212789 148.403507,98.8224605 L120.995045,145.868943 C119.770612,147.375937 118.54618,147.28175 117.321747,145.586381 L110.822833,134.849046 L103.900077,138.946187 L120.571203,167.626175 L164.933352,91.3345819 L132.014942,91.3345819 C132.014942,96.985811 132.014942,100.423642 132.014942,101.648075 C132.014942,102.872508 131.449819,103.626005 130.319573,103.908567 C118.451992,103.908567 112.09436,103.908567 111.246675,103.908567 C110.398991,103.908567 109.928055,103.249257 109.833868,101.930636 L109.833868,91.3345819 L76.0677741,91.3345819 L92.4563385,120.438412 L100.085498,115.776148 L89.9132854,98.3986183 C89.2539754,96.985811 89.4894432,95.9968459 90.6196891,95.431723 C91.7499349,94.8666001 92.7389,95.0549744 93.5865843,95.9968459 C100.179685,107.487678 103.947171,113.892405 104.889043,115.211025 C105.830914,116.529645 105.64254,117.612797 104.32392,118.460482 C98.5785034,122.227968 94.9052045,124.535553 93.3040229,125.383237 C91.7028413,126.230922 90.3842212,125.901267 89.3481625,124.394272 C77.0096456,102.260291 70.416545,90.4868975 69.5688607,89.0740903 C68.7211763,87.661283 69.0508313,86.9548794 70.5578258,86.9548794 L111.953079,86.8135986 C113.271699,86.7194115 113.883916,87.4258151 113.789728,88.9328095 L113.789728,99.3875834 L127.917801,99.2463026 C127.917801,95.2904423 127.917801,92.1822663 127.917801,89.9217746 C127.917801,87.661283 128.906766,86.5781307 130.884696,86.6723179 C130.884696,86.6723179 143.411588,86.7194115 168.46537,86.8135986 C171.196797,86.7194115 171.856107,87.7554701 170.4433,89.9217746 Z M33,113.187919 C33,86.5659955 33,72.6957494 33,71.5771812 C33,70.458613 33.5592841,69.4519016 34.6778523,68.557047 C88.8165548,37.3266219 116.557047,21.3310962 117.899329,20.5704698 C119.241611,19.8098434 120.695749,19.8098434 122.261745,20.5704698 C177.295302,52.2035794 205.259508,68.310962 206.154362,68.8926174 C207.049217,69.4742729 207.496644,70.5928412 207.496644,72.2483221 L207.496644,113.187919 C198.548098,110.503356 194.073826,106.068389 194.073826,99.8830203 C194.073826,88.1742098 194.073826,81.6472075 194.073826,80.3020134 C194.073826,78.5123043 193.402685,77.2818792 192.060403,76.6107383 C147.765101,51.196868 124.722595,37.9977629 122.932886,37.0134228 C121.143177,36.0290828 119.353468,36.0290828 117.563758,37.0134228 C71.9261745,63.098434 48.6599553,76.409396 47.7651007,76.9463087 C46.8702461,77.4832215 46.4228188,78.1543624 46.4228188,78.9597315 C46.4228188,86.5659955 46.4228188,93.5011186 46.4228188,99.7651007 C46.4228188,106.029083 41.9485459,110.503356 33,113.187919 Z M46.4228188,126.711409 L46.4228188,161.040268 C46.4228188,161.845638 46.8702461,162.516779 47.7651007,163.053691 C48.6599553,163.590604 71.9261745,176.901566 117.563758,202.986577 C119.353468,203.970917 121.143177,203.970917 122.932886,202.986577 C124.722595,202.002237 147.765101,188.803132 192.060403,163.389262 C193.402685,162.718121 194.073826,161.487696 194.073826,159.697987 C194.073826,158.80119 194.073826,147.805665 194.073826,126.711409 C203.022371,129.395973 207.496644,133.870246 207.496644,140.134228 C207.496644,146.39821 207.496644,155.604027 207.496644,167.751678 C207.496644,169.407159 207.049217,170.525727 206.154362,171.107383 C205.259508,171.689038 177.295302,187.796421 122.261745,219.42953 C120.695749,220.190157 119.241611,220.190157 117.899329,219.42953 C116.557047,218.668904 88.8165548,202.673378 34.6778523,171.442953 C33.5592841,170.548098 33,169.541387 33,168.422819 C33,167.509419 33,158.093115 33,140.174089 C33,133.883533 37.4742729,129.395973 46.4228188,126.711409 Z" id="Combined-Shape" fill="#FFFFFF"></path>
    </g>
</svg>